<?xml version="1.0" encoding="utf-8"?>
<!-- Generator: Adobe Illustrator 16.0.0, SVG Export Plug-In . SVG Version: 6.00 Build 0)  -->
<!DOCTYPE svg PUBLIC "-//W3C//DTD SVG 1.1//EN" "http://www.w3.org/Graphics/SVG/1.1/DTD/svg11.dtd">
<svg version="1.1" id="Layer_1" xmlns="http://www.w3.org/2000/svg" xmlns:xlink="http://www.w3.org/1999/xlink" x="0px" y="0px"
	 width="122px" height="32px" viewBox="0 0 122 32" enable-background="new 0 0 122 32" xml:space="preserve">
<title>majestic</title>
<desc>Created with Sketch.</desc>
<g id="Page-1">
	<g id="majestic">
		<g id="Group-5">
			<path id="Rectangle" fill="#6493FF" d="M8.756,0.624l1.957,0.416c1.621,0.344,2.655,1.938,2.311,3.558l-4.574,21.52
				c-0.344,1.621-1.938,2.654-3.558,2.311l-1.956-0.416c-1.621-0.344-2.655-1.938-2.311-3.559L5.198,2.935
				C5.542,1.314,7.135,0.279,8.756,0.624z"/>
			<path id="Rectangle-Copy" fill="#3155A7" d="M19.7,5.42l1.972,0.099c1.634,0.082,2.755,1.024,2.504,2.104L19.7,26.52
				c-0.251,1.08-2.12,1.916-3.753,1.834l-1.973-0.099c-1.634-0.081-2.755-1.023-2.503-2.104l4.816-18.924
				C16.538,6.147,18.066,5.339,19.7,5.42z"/>
			<path id="Rectangle-Copy-2" fill="#6493FF" d="M29.605,6.863l1.949,0.423c1.615,0.351,2.624,1.861,2.252,3.373l-3.877,16.416
				c-0.371,1.512-1.981,2.453-3.596,2.103l-1.949-0.424c-1.615-0.352-2.623-1.861-2.252-3.373l3.877-16.416
				C26.38,7.453,27.99,6.512,29.605,6.863z"/>
			<path id="Path-2" fill="#6493FF" d="M8.833,0.498l14.208,4.33c1.028,0.313,1.625,1.384,1.351,2.423l-1.36,5.156L4.471,6.783
				L5.533,2.18c0.301-1.301,1.599-2.112,2.9-1.812C8.57,0.399,8.704,0.443,8.833,0.498z"/>
			<circle id="Oval" fill="#3155A7" cx="36.5" cy="24.5" r="3.5"/>
		</g>
	</g>
</g>
<g>
	<path fill="#6493FF" d="M52.757,8.329c0.439,0,1.295,0.352,1.295,8.256c0,6.456-1.976,10.342-6.675,10.342
		c-4.128,0-6.653-3.184-6.653-9.749c0-7.026,0.834-8.849,1.12-8.849h3.052c0.22,0,0.483,0,0.483,0.286
		c0,0.505-1.098,2.833-1.098,7.882c0,4.984,1.8,6.521,3.096,6.521c1.098,0,3.469-0.285,3.469-6.302c0-5.709-1.076-7.707-1.076-8.102
		c0-0.352,0.637-0.286,0.834-0.286H52.757z M42.92,5.058c0-1.142,0.9-1.757,1.954-1.757c1.054,0,1.954,0.615,1.954,1.757
		c0,1.142-0.9,1.756-1.954,1.756C43.821,6.814,42.92,6.199,42.92,5.058z M47.949,5.058c0-1.142,0.9-1.757,1.954-1.757
		c1.054,0,1.954,0.615,1.954,1.757c0,1.142-0.9,1.756-1.954,1.756C48.849,6.814,47.949,6.199,47.949,5.058z"/>
	<path fill="#6493FF" d="M63.211,8.329c4.085,0,5.116,2.24,5.116,4.106c0,3.513-3.293,4.589-3.293,5.204
		c0,0.615,3.952,3.491,3.952,8.674c0,0.241-0.088,0.285-0.549,0.285h-2.481c-0.396,0-1.076,0.065-1.076-0.285
		c0-2.481-1.756-6.938-3.03-6.938c-0.658,0-2.261,0.899-2.261,2.13c0,1.668,0.813,4.677,0.813,4.83c0,0.373-0.549,0.264-0.769,0.264
		h-2.547c-0.549,0-1.208,0.417-1.208-7.816c0-10.847,1.142-10.452,1.515-10.452H63.211z M64.771,12.809
		c0-1.383-1.296-1.889-2.481-1.889c-1.998,0-2.876,0.725-2.854,4.523c0,0.461,0.022,1.339,0.681,1.339
		C60.862,16.782,64.771,14.829,64.771,12.809z"/>
	<path fill="#6493FF" d="M69.911,18.518C69.911,13.335,72.788,8,78.035,8c1.91,0,4.853,0.813,4.853,3.184
		c0,1.273-0.878,1.998-2.262,1.998c-0.899,0,0.308-2.064-2.48-2.064c-3.47,0-4.677,3.93-4.677,6.983
		c0,2.393,0.681,4.918,3.557,4.918c1.361,0,2.833-0.571,2.833-2.107c0-1.779-1.735-1.933-1.735-2.504
		c0-0.285,3.777-1.646,4.04-1.646c0.439,0,0.944,5.357,0.944,6.017c0,2.876-2.854,4.149-5.577,4.149
		C72.437,26.927,69.911,23.414,69.911,18.518z"/>
	<path fill="#6493FF" d="M96.592,8.329c0.439,0,1.296,0.352,1.296,8.256c0,6.456-1.977,10.342-6.675,10.342
		c-4.128,0-6.653-3.184-6.653-9.749c0-7.026,0.834-8.849,1.12-8.849h3.052c0.22,0,0.483,0,0.483,0.286
		c0,0.505-1.099,2.833-1.099,7.882c0,4.984,1.801,6.521,3.097,6.521c1.098,0,3.469-0.285,3.469-6.302
		c0-5.709-1.075-7.707-1.075-8.102c0-0.352,0.637-0.286,0.834-0.286H96.592z M86.755,5.058c0-1.142,0.9-1.757,1.955-1.757
		c1.054,0,1.954,0.615,1.954,1.757c0,1.142-0.9,1.756-1.954,1.756C87.655,6.814,86.755,6.199,86.755,5.058z M91.783,5.058
		c0-1.142,0.9-1.757,1.954-1.757c1.055,0,1.955,0.615,1.955,1.757c0,1.142-0.9,1.756-1.955,1.756
		C92.684,6.814,91.783,6.199,91.783,5.058z"/>
	<path fill="#6493FF" d="M109.571,26.598c-1.516,0-0.154-1.361-3.579-8.3c-0.286-0.593-2.218-4.282-2.921-4.282
		c-0.549,0-0.395,2.393-0.395,2.833c0,6.192,0.899,8.432,0.899,9.552c0,0.285-0.417,0.197-0.614,0.197h-2.042
		c-0.549,0-1.208,0.417-1.208-7.816c0-10.847,1.142-10.452,1.516-10.452h1.734c0.834,0,2.503,1.757,6.609,9.354
		c0.065,0.11,0.176,0.396,0.373,0.396c0.22,0,0.176-0.944,0.176-1.252c0-4.105-1.12-7.75-1.12-8.255c0-0.308,0.483-0.242,0.9-0.242
		h1.669c0.482,0,1.515-0.395,1.515,10.452c0,8.233-0.658,7.816-1.207,7.816H109.571z"/>
</g>
<g>
	<path fill="#FFFFFF" d="M26.506,24.835c-1.438-0.32-2.828-1.479-2.468-3.091c0.129-0.577,0.572-1.409,1.288-1.249
		c0.384,0.086,0.543,0.399,0.451,0.816c-0.062,0.272-0.603-0.232-0.791,0.61c-0.216,0.968,0.681,1.6,1.509,1.785
		c1.266,0.28,1.969-0.467,2.097-1.042c0.242-1.081-0.706-1.391-0.693-1.449c0.021-0.094,0.563-0.028,0.629-0.013
		c0.981,0.219,1.382,1.1,1.175,2.029C29.368,24.737,27.845,25.134,26.506,24.835z"/>
	<path fill="#FFFFFF" d="M30.183,20.611c-0.036,0.166,0.045,0.393-2.44-0.163c-3.273-0.731-3.077-1.049-3.052-1.161l0.137-0.609
		c0.058-0.259,0.078-0.351,0.594-0.577c0.994-0.432,1.487-0.364,1.517-0.497c0.022-0.1-0.454-0.248-1.151-1.14
		c-0.368-0.472-0.339-0.568-0.281-0.829l0.116-0.516c0.025-0.111-0.018-0.483,3.256,0.248c2.485,0.555,2.314,0.725,2.278,0.89
		l-0.189,0.85c-0.019,0.08-0.034,0.243-0.153,0.218c-0.093-0.021-1.201-0.665-2.931-1.052c-0.14-0.031-0.951-0.232-1-0.014
		c-0.042,0.191,0.557,0.588,0.701,0.692c1.235,0.859,1.909,0.771,1.809,1.217c-0.125,0.558-0.699,0.199-2.188,0.485
		c-0.161,0.034-0.879,0.105-0.926,0.31c-0.048,0.218,0.768,0.393,0.908,0.425c1.729,0.386,3.015,0.235,3.108,0.257
		c0.119,0.025,0.063,0.179,0.046,0.258L30.183,20.611z"/>
	<path fill="#FFFFFF" d="M27.067,12.385c-0.074,0.332-0.003,0.794,0.381,0.879c0.477,0.106,0.81-0.509,1.017-0.846
		c0.774-1.288,1.507-1.423,2.138-1.283c0.768,0.171,1.592,0.934,1.28,2.332c-0.21,0.941-0.926,1.783-1.979,1.547
		c-0.563-0.125-0.819-0.538-0.805-0.604c0.025-0.114,1.346,0.3,1.664-1.125c0.113-0.504-0.008-0.99-0.419-1.081
		c-0.484-0.109-0.815,0.443-1.021,0.801c-0.774,1.351-1.466,1.363-2.03,1.237c-0.557-0.123-1.42-0.713-1.12-2.059
		c0.214-0.961,0.877-1.529,1.069-1.485c0.186,0.041,0.712,0.52,0.67,0.705C27.875,11.57,27.221,11.696,27.067,12.385z"/>
</g>
</svg>
