<?xml version="1.0" encoding="utf-8"?>
<!-- Generator: Adobe Illustrator 16.0.0, SVG Export Plug-In . SVG Version: 6.00 Build 0)  -->
<!DOCTYPE svg PUBLIC "-//W3C//DTD SVG 1.1//EN" "http://www.w3.org/Graphics/SVG/1.1/DTD/svg11.dtd">
<svg version="1.1" id="Layer_1" xmlns="http://www.w3.org/2000/svg" xmlns:xlink="http://www.w3.org/1999/xlink" x="0px" y="0px"
	 width="122px" height="32px" viewBox="0 0 122 32" enable-background="new 0 0 122 32" xml:space="preserve">
<title>majestic</title>
<desc>Created with Sketch.</desc>
<g id="majestic">
	<g id="Group-5">
		<path id="Rectangle" fill="#6493FF" d="M8.756,0.624l1.957,0.416c1.621,0.344,2.655,1.938,2.311,3.558l-4.574,21.52
			c-0.344,1.621-1.938,2.654-3.558,2.311l-1.956-0.416c-1.621-0.344-2.655-1.938-2.311-3.559L5.198,2.935
			C5.542,1.314,7.135,0.279,8.756,0.624z"/>
		<path id="Rectangle-Copy" fill="#3155A7" d="M19.7,5.42l1.972,0.099c1.634,0.082,2.755,1.024,2.504,2.104L19.7,26.52
			c-0.251,1.08-2.12,1.916-3.753,1.834l-1.973-0.099c-1.634-0.081-2.755-1.023-2.503-2.104l4.816-18.924
			C16.538,6.147,18.066,5.339,19.7,5.42z"/>
		<path id="Rectangle-Copy-2" fill="#6493FF" d="M29.605,6.863l1.949,0.423c1.615,0.351,2.624,1.861,2.252,3.373l-3.877,16.416
			c-0.371,1.512-1.981,2.453-3.596,2.103l-1.949-0.424c-1.615-0.352-2.623-1.861-2.252-3.373l3.877-16.416
			C26.38,7.453,27.99,6.512,29.605,6.863z"/>
		<path id="Path-2" fill="#6493FF" d="M8.833,0.498l14.208,4.33c1.028,0.313,1.625,1.384,1.351,2.423l-1.36,5.156L4.471,6.783
			L5.533,2.18c0.301-1.301,1.599-2.112,2.9-1.812C8.57,0.399,8.704,0.443,8.833,0.498z"/>
		<circle id="Oval" fill="#6493FF" cx="36.5" cy="24.5" r="3.5"/>
	</g>
</g>
<g>
	<path fill="#3155A7" d="M107.703,2.709c0.163-0.163,0.34-0.31,0.527-0.442c0.188-0.13,0.383-0.24,0.583-0.327
		c0.201-0.085,0.405-0.149,0.615-0.186c0.209-0.038,0.414-0.044,0.619-0.019c0.204,0.025,0.403,0.084,0.599,0.179
		c0.193,0.093,0.378,0.227,0.551,0.4c0.091,0.091,0.172,0.193,0.241,0.306c0.068,0.113,0.125,0.229,0.171,0.352
		c0.046,0.122,0.078,0.247,0.098,0.377c0.019,0.129,0.022,0.256,0.016,0.382l0.343-0.343l0.447,0.448l-1.063,1.064l-0.448-0.448
		c0.058-0.144,0.096-0.292,0.113-0.446c0.017-0.154,0.014-0.305-0.013-0.453c-0.026-0.148-0.073-0.291-0.142-0.428
		s-0.158-0.261-0.269-0.372c-0.173-0.173-0.366-0.284-0.577-0.329c-0.211-0.046-0.428-0.042-0.648,0.01
		c-0.222,0.054-0.439,0.148-0.658,0.282c-0.218,0.135-0.421,0.298-0.609,0.487c-0.213,0.213-0.383,0.434-0.51,0.665
		c-0.123,0.232-0.204,0.458-0.238,0.68c-0.034,0.222-0.021,0.435,0.037,0.636c0.058,0.203,0.166,0.383,0.322,0.538
		c0.142,0.142,0.292,0.25,0.45,0.326c0.155,0.074,0.319,0.118,0.487,0.131c0.169,0.013,0.343-0.003,0.521-0.049
		c0.18-0.047,0.36-0.116,0.546-0.211l-0.004,0.61c-0.473,0.229-0.916,0.315-1.335,0.262c-0.416-0.055-0.801-0.258-1.157-0.614
		c-0.223-0.223-0.381-0.479-0.47-0.766s-0.116-0.585-0.08-0.896c0.035-0.311,0.134-0.622,0.29-0.934
		C107.218,3.273,107.432,2.981,107.703,2.709z M106.489,4.888c-0.002,0.128,0.011,0.26,0.04,0.398
		c0.03,0.138,0.073,0.273,0.126,0.404c0.056,0.132,0.121,0.257,0.201,0.377c0.078,0.12,0.165,0.229,0.259,0.323
		c0.168,0.168,0.351,0.307,0.547,0.416c0.195,0.108,0.398,0.184,0.608,0.228c0.212,0.044,0.428,0.054,0.648,0.027
		c0.219-0.026,0.438-0.088,0.655-0.187l0.007,0.131c-0.224,0.104-0.45,0.169-0.68,0.198c-0.229,0.029-0.454,0.021-0.675-0.022
		c-0.221-0.042-0.436-0.123-0.643-0.238c-0.207-0.114-0.402-0.263-0.585-0.445c-0.104-0.104-0.195-0.218-0.276-0.344
		c-0.079-0.125-0.142-0.257-0.188-0.396c-0.048-0.14-0.077-0.284-0.086-0.428C106.438,5.183,106.451,5.035,106.489,4.888z
		 M108.342,3.342c0.183-0.183,0.373-0.33,0.57-0.44s0.392-0.182,0.582-0.216c0.191-0.035,0.373-0.028,0.543,0.017
		c0.173,0.045,0.323,0.134,0.455,0.266c0.173,0.172,0.285,0.364,0.337,0.575c0.051,0.211,0.042,0.43-0.027,0.657
		c0.006-0.234-0.027-0.444-0.1-0.629c-0.073-0.184-0.183-0.351-0.33-0.499c-0.124-0.124-0.268-0.206-0.427-0.244
		c-0.162-0.04-0.328-0.041-0.501-0.006c-0.173,0.034-0.346,0.101-0.519,0.202c-0.172,0.101-0.335,0.228-0.486,0.379
		c-0.147,0.148-0.272,0.299-0.372,0.454c-0.101,0.153-0.175,0.313-0.222,0.477c-0.049,0.165-0.069,0.337-0.062,0.518
		c0.006,0.181,0.044,0.37,0.114,0.571c-0.099-0.15-0.164-0.311-0.192-0.482c-0.03-0.173-0.025-0.348,0.011-0.528
		c0.038-0.18,0.108-0.359,0.212-0.542C108.032,3.69,108.171,3.514,108.342,3.342z M110.912,4.778l0.472,0.471l1.12-1.12l0.079,0.079
		l-1.232,1.232l-0.551-0.55L110.912,4.778z"/>
	<path fill="#3155A7" d="M109.969,7.705l0.534,0.534l2.732-2.733l-0.534-0.533l0.474-0.474l1.284,1.284l-1.527,3.379l3.314-1.592
		l1.283,1.283l-0.474,0.474l-0.528-0.529l-2.732,2.733l0.528,0.529l-0.474,0.473l-1.432-1.432l0.474-0.474l0.454,0.454l2.76-2.759
		l-4.083,1.962l-0.239-0.239l1.832-4.025l-2.665,2.666l0.45,0.45l-0.474,0.474l-1.432-1.432L109.969,7.705z M112.613,5.296
		l0.332,0.333l-0.112,0.112l-0.332-0.332L112.613,5.296z M110.862,9.958l0.515-0.514l0.078,0.078l-0.627,0.627l-1.534-1.535
		l0.113-0.112L110.862,9.958z M113.073,6.838l-0.131,0.289l-1.599,1.599l-0.08-0.079L113.073,6.838z M114.531,6.156l0.086,0.087
		l-1.118,2.498l-0.17,0.079L114.531,6.156z M111.905,10.587l3.366-1.621l-0.245,0.246l-3.183,1.539l-0.203-0.203l0.071-0.153
		L111.905,10.587z M113.785,12.881l0.514-0.513l0.081,0.08l-0.627,0.627l-1.536-1.536l0.113-0.113L113.785,12.881z M116.458,9.142
		l0.533,0.533l0.531-0.532l0.081,0.081l-0.645,0.645l-0.534-0.535l-2.237,2.238l-0.078-0.079L116.458,9.142z"/>
	<path fill="#3155A7" d="M115.737,12.291l0.405,0.406c-0.062,0.412-0.048,0.77,0.043,1.079c0.089,0.309,0.243,0.572,0.46,0.789
		c0.095,0.093,0.195,0.168,0.302,0.219c0.107,0.052,0.213,0.081,0.319,0.092c0.105,0.009,0.207-0.001,0.305-0.035
		c0.099-0.032,0.185-0.085,0.259-0.161c0.087-0.085,0.147-0.185,0.184-0.293c0.036-0.112,0.044-0.236,0.021-0.375
		c-0.022-0.142-0.075-0.296-0.159-0.466c-0.083-0.171-0.201-0.358-0.354-0.566c-0.175-0.24-0.301-0.468-0.375-0.687
		c-0.074-0.218-0.106-0.423-0.097-0.619c0.01-0.195,0.056-0.378,0.14-0.546c0.082-0.169,0.194-0.323,0.334-0.463
		c0.131-0.13,0.281-0.23,0.453-0.302c0.17-0.071,0.353-0.104,0.543-0.099c0.194,0.005,0.392,0.052,0.596,0.143
		c0.206,0.091,0.405,0.234,0.6,0.428c0.113,0.114,0.204,0.231,0.273,0.352c0.065,0.12,0.117,0.245,0.151,0.369
		c0.033,0.125,0.054,0.252,0.06,0.381c0.004,0.129,0.001,0.26-0.012,0.389l0.405-0.405l0.447,0.446l-1.064,1.065l-0.446-0.447
		c0.061-0.138,0.101-0.28,0.122-0.428c0.021-0.148,0.021-0.295,0-0.439c-0.02-0.144-0.06-0.283-0.122-0.415
		c-0.063-0.135-0.146-0.254-0.254-0.361c-0.11-0.112-0.225-0.194-0.34-0.25c-0.116-0.053-0.227-0.085-0.331-0.095
		c-0.107-0.009-0.203,0.002-0.291,0.032c-0.089,0.03-0.161,0.073-0.217,0.13c-0.074,0.073-0.132,0.155-0.172,0.248
		c-0.04,0.092-0.054,0.199-0.047,0.318c0.01,0.123,0.049,0.262,0.116,0.417c0.067,0.156,0.171,0.335,0.313,0.54
		c0.196,0.288,0.343,0.547,0.438,0.78c0.093,0.233,0.142,0.446,0.143,0.642c0.001,0.197-0.041,0.381-0.127,0.552
		c-0.089,0.17-0.213,0.336-0.374,0.499c-0.123,0.121-0.269,0.224-0.437,0.303c-0.167,0.08-0.347,0.125-0.537,0.135
		c-0.19,0.012-0.388-0.023-0.589-0.098c-0.2-0.074-0.395-0.205-0.582-0.392c-0.117-0.118-0.219-0.242-0.302-0.37
		c-0.086-0.132-0.155-0.268-0.209-0.412c-0.057-0.144-0.099-0.295-0.127-0.454c-0.03-0.158-0.045-0.326-0.049-0.504l-0.438,0.438
		l-0.444-0.445L115.737,12.291z M115.055,14.149l0.292-0.292c0.033,0.283,0.104,0.542,0.212,0.778
		c0.107,0.239,0.266,0.464,0.474,0.672c0.16,0.159,0.341,0.289,0.541,0.385c0.199,0.098,0.408,0.151,0.625,0.165
		c0.22,0.014,0.442-0.023,0.667-0.107c0.226-0.087,0.443-0.232,0.652-0.442c0.126-0.125,0.231-0.251,0.316-0.372
		c0.087-0.121,0.155-0.26,0.206-0.419c-0.001,0.067-0.014,0.136-0.036,0.209c-0.022,0.075-0.054,0.15-0.095,0.227
		c-0.037,0.077-0.086,0.153-0.139,0.227c-0.054,0.073-0.112,0.142-0.176,0.206c-0.217,0.217-0.441,0.375-0.679,0.473
		c-0.238,0.098-0.473,0.146-0.708,0.141c-0.233-0.004-0.461-0.056-0.684-0.159c-0.22-0.1-0.422-0.24-0.604-0.424
		c-0.206-0.205-0.363-0.416-0.471-0.63c-0.109-0.215-0.179-0.431-0.212-0.656l-0.214,0.214l-0.551-0.55l0.113-0.113L115.055,14.149z
		 M116.873,11.43c-0.042,0.131-0.066,0.263-0.077,0.391c-0.008,0.128,0.004,0.262,0.035,0.4c0.032,0.138,0.084,0.285,0.158,0.438
		c0.075,0.154,0.175,0.318,0.302,0.497c0.125,0.174,0.225,0.329,0.304,0.462c0.079,0.134,0.136,0.252,0.174,0.354
		c0.036,0.101,0.054,0.193,0.051,0.271c-0.005,0.078-0.028,0.153-0.069,0.222c-0.005-0.072-0.016-0.143-0.032-0.213
		c-0.016-0.069-0.045-0.15-0.088-0.242c-0.043-0.09-0.102-0.199-0.181-0.324c-0.078-0.125-0.18-0.278-0.306-0.46
		c-0.132-0.192-0.235-0.375-0.309-0.551c-0.073-0.175-0.12-0.34-0.141-0.492c-0.019-0.151-0.015-0.291,0.018-0.42
		C116.743,11.635,116.797,11.525,116.873,11.43z M118.278,11.305c0.041-0.042,0.093-0.065,0.154-0.07
		c0.062-0.005,0.129,0.005,0.205,0.033c0.072,0.024,0.149,0.065,0.232,0.119c0.081,0.055,0.16,0.12,0.24,0.2
		c0.119,0.119,0.202,0.257,0.247,0.416c0.045,0.158,0.06,0.315,0.038,0.473c-0.014-0.061-0.032-0.127-0.056-0.196
		s-0.051-0.138-0.082-0.207c-0.032-0.069-0.071-0.136-0.113-0.2s-0.089-0.123-0.141-0.174c-0.143-0.142-0.279-0.243-0.405-0.301
		C118.472,11.34,118.365,11.308,118.278,11.305z M119.442,13.308l0.469,0.468l1.12-1.119l0.082,0.083l-1.232,1.232l-0.551-0.551
		L119.442,13.308z"/>
</g>
<g>
	<path fill="#6493FF" d="M41.037,9.811h-2.256V7.804h6.416v2.007h-2.273v7.176c0,0.77,0.092,1.449,0.279,2.038
		c0.189,0.591,0.446,1.085,0.773,1.487c0.327,0.4,0.711,0.704,1.153,0.909s0.917,0.309,1.426,0.309c0.507,0,0.956-0.068,1.341-0.201
		c0.386-0.134,0.718-0.313,0.995-0.541c0.276-0.225,0.499-0.487,0.669-0.791c0.17-0.301,0.298-0.618,0.382-0.953
		c0.051-0.258,0.091-0.499,0.122-0.72c0.03-0.222,0.055-0.466,0.075-0.729c0.02-0.26,0.033-0.569,0.038-0.923
		c0.004-0.348,0.008-0.789,0.008-1.315V9.811H47.92V7.804h6.416v2.007h-2.264v5.958c0,0.763-0.012,1.403-0.033,1.928
		c-0.023,0.521-0.057,0.922-0.101,1.197c-0.141,0.795-0.375,1.496-0.705,2.101c-0.33,0.606-0.73,1.114-1.204,1.52
		c-0.472,0.405-1.004,0.71-1.596,0.917c-0.593,0.203-1.219,0.306-1.878,0.306c-0.878,0-1.659-0.161-2.343-0.481
		c-0.685-0.323-1.262-0.78-1.732-1.368c-0.469-0.591-0.827-1.299-1.073-2.128c-0.247-0.827-0.369-1.751-0.369-2.771V9.811z
		 M39.285,10.688h1.409v0.478h-1.409V10.688z M42.689,23.083c0.608,0.478,1.226,0.852,1.849,1.122
		c0.622,0.273,1.295,0.411,2.017,0.411c0.547,0,1.08-0.075,1.598-0.221c0.515-0.147,1.002-0.362,1.454-0.646
		c0.454-0.284,0.868-0.643,1.245-1.073c0.377-0.43,0.701-0.927,0.969-1.491c0.268-0.565,0.478-1.198,0.628-1.901
		c0.151-0.702,0.227-1.473,0.227-2.309v-6.287h2.349V8.442h0.334v2.724h-2.347v5.821c0,1.271-0.167,2.407-0.5,3.405
		c-0.332,1-0.79,1.849-1.371,2.547c-0.581,0.698-1.265,1.231-2.049,1.601c-0.785,0.367-1.632,0.551-2.537,0.551
		c-0.397,0-0.784-0.046-1.161-0.138c-0.377-0.093-0.734-0.225-1.07-0.395c-0.336-0.171-0.642-0.381-0.921-0.628
		C43.121,23.684,42.884,23.401,42.689,23.083z M42.832,2.598h2.054v2.509h-2.054V2.598z M43.334,5.984h2.154V3.299h0.336v3.162
		h-2.491V5.984z M43.528,10.688H45.8V8.442h0.333v2.724h-2.271v5.821c0,0.494,0.048,0.959,0.144,1.395
		c0.094,0.434,0.243,0.823,0.448,1.164c0.204,0.344,0.464,0.632,0.784,0.865c0.319,0.234,0.705,0.393,1.158,0.478
		c-0.493,0-0.919-0.095-1.28-0.288c-0.361-0.192-0.658-0.46-0.893-0.804c-0.236-0.343-0.409-0.752-0.523-1.229
		c-0.116-0.477-0.172-1.005-0.172-1.58V10.688z M47.946,2.598h2.055v2.509h-2.055V2.598z M48.423,10.688h1.409v0.478h-1.409V10.688z
		 M48.45,5.984h2.155V3.299h0.334v3.162H48.45V5.984z"/>
	<path fill="#6493FF" d="M56.969,21.54h1.845v-8.09h-1.845v-2.133h3.648v2.094c0.172-0.334,0.381-0.652,0.623-0.953
		c0.243-0.301,0.52-0.566,0.827-0.791c0.308-0.225,0.643-0.403,1.006-0.532c0.363-0.129,0.752-0.195,1.166-0.195
		c0.122,0,0.276,0.006,0.462,0.02c0.184,0.011,0.36,0.04,0.526,0.081v2.458c-0.194-0.065-0.389-0.112-0.578-0.138
		c-0.19-0.024-0.375-0.036-0.553-0.036c-0.448,0-0.871,0.105-1.271,0.319c-0.399,0.213-0.757,0.523-1.069,0.928
		c-0.313,0.407-0.57,0.903-0.771,1.487c-0.201,0.584-0.324,1.255-0.369,2.008v3.474h3.018v1.883h-6.666V21.54z M57.472,14.327h0.991
		v0.475h-0.991V14.327z M64.239,24.302v-2.057h0.335v2.532h-7.102v-0.476H64.239z M61.203,19.194c0-0.785,0.067-1.487,0.2-2.108
		c0.136-0.617,0.327-1.14,0.575-1.567c0.25-0.427,0.553-0.751,0.911-0.976c0.357-0.227,0.759-0.341,1.207-0.341
		c0.095,0,0.217,0.011,0.361,0.032c0.144,0.021,0.298,0.052,0.457,0.093c0.156,0.043,0.318,0.096,0.48,0.157
		c0.161,0.063,0.308,0.137,0.436,0.219v-2.96h0.336v3.588c-0.157-0.102-0.324-0.19-0.507-0.27s-0.365-0.149-0.553-0.206
		c-0.188-0.058-0.368-0.104-0.54-0.131c-0.174-0.03-0.331-0.045-0.471-0.045c-0.408,0-0.771,0.101-1.086,0.302
		c-0.315,0.199-0.582,0.488-0.8,0.865c-0.221,0.378-0.386,0.838-0.5,1.381s-0.172,1.158-0.172,1.844v1.718h-0.336V19.194z"/>
	<path fill="#6493FF" d="M68.901,25.617c0.272,0.426,0.582,0.785,0.919,1.074c0.339,0.289,0.682,0.52,1.032,0.695
		c0.347,0.176,0.69,0.302,1.026,0.377c0.335,0.075,0.637,0.113,0.904,0.113c0.526,0,0.999-0.072,1.418-0.221
		c0.42-0.146,0.775-0.412,1.068-0.797c0.294-0.384,0.52-0.911,0.676-1.579c0.155-0.671,0.235-1.531,0.235-2.585v-1.13
		c-0.214,0.301-0.453,0.574-0.721,0.815c-0.271,0.243-0.558,0.451-0.866,0.629c-0.308,0.175-0.629,0.31-0.968,0.398
		c-0.34,0.095-0.681,0.14-1.027,0.14c-0.781,0-1.477-0.146-2.083-0.44c-0.607-0.291-1.116-0.707-1.531-1.246
		c-0.413-0.54-0.728-1.194-0.942-1.965c-0.216-0.768-0.323-1.631-0.323-2.583c0-0.519,0.05-1.035,0.151-1.55
		c0.1-0.514,0.252-1.008,0.45-1.48c0.195-0.473,0.442-0.913,0.736-1.316c0.294-0.407,0.63-0.761,1.012-1.062
		c0.378-0.301,0.803-0.536,1.271-0.708c0.471-0.172,0.98-0.258,1.527-0.258c0.258,0,0.533,0.037,0.825,0.106
		c0.295,0.072,0.586,0.182,0.877,0.334c0.291,0.15,0.573,0.344,0.852,0.582c0.276,0.239,0.53,0.527,0.76,0.86v-1.505h3.604v2.133
		h-1.846v9.246c0,1.346-0.125,2.476-0.376,3.387s-0.604,1.644-1.058,2.196c-0.45,0.551-0.99,0.946-1.614,1.186
		c-0.623,0.239-1.307,0.359-2.049,0.359c-0.437,0-0.884-0.053-1.341-0.152c-0.46-0.101-0.905-0.252-1.339-0.458
		c-0.432-0.205-0.839-0.468-1.22-0.791c-0.381-0.322-0.707-0.71-0.98-1.161L68.901,25.617z M68.457,29.006
		c0.278,0.302,0.596,0.56,0.947,0.777c0.354,0.218,0.721,0.394,1.106,0.527c0.387,0.134,0.776,0.232,1.174,0.295
		c0.396,0.063,0.783,0.095,1.158,0.095c0.508,0,1.003-0.057,1.483-0.172c0.481-0.111,0.934-0.293,1.355-0.545
		c0.421-0.249,0.808-0.58,1.159-0.989c0.354-0.411,0.655-0.915,0.906-1.513c0.252-0.599,0.447-1.297,0.588-2.096
		c0.14-0.799,0.209-1.717,0.209-2.752v-8.307h1.846v-2.31h0.335v2.785H78.88v7.832c0,1.085-0.073,2.053-0.218,2.896
		c-0.148,0.847-0.351,1.587-0.613,2.223c-0.263,0.634-0.58,1.171-0.946,1.605c-0.37,0.435-0.778,0.785-1.225,1.053
		c-0.446,0.269-0.929,0.464-1.443,0.584c-0.513,0.122-1.045,0.183-1.592,0.183c-0.426,0-0.857-0.051-1.3-0.149
		c-0.441-0.103-0.861-0.246-1.254-0.435c-0.393-0.189-0.751-0.416-1.073-0.684C68.895,29.642,68.642,29.341,68.457,29.006z
		 M68.734,22.634c0.229,0.274,0.493,0.523,0.792,0.744c0.298,0.222,0.618,0.411,0.956,0.566c0.337,0.153,0.687,0.272,1.046,0.357
		c0.361,0.082,0.722,0.125,1.08,0.125c0.619,0,1.201-0.111,1.738-0.333c0.541-0.221,1.021-0.536,1.438-0.947l-0.049,0.628
		c-0.42,0.376-0.896,0.659-1.431,0.846c-0.532,0.188-1.096,0.283-1.689,0.283c-0.905,0-1.69-0.19-2.356-0.57
		C69.595,23.952,69.085,23.385,68.734,22.634z M69.539,17.213c0,0.645,0.069,1.234,0.204,1.775c0.138,0.539,0.344,1.002,0.613,1.392
		c0.271,0.39,0.606,0.694,1.007,0.909c0.399,0.219,0.859,0.327,1.379,0.327c0.414,0,0.825-0.077,1.237-0.233
		c0.41-0.152,0.778-0.407,1.106-0.758c0.327-0.352,0.59-0.811,0.792-1.381c0.202-0.568,0.303-1.266,0.303-2.094
		c0-0.595-0.088-1.15-0.262-1.669c-0.173-0.519-0.409-0.97-0.711-1.355c-0.302-0.386-0.656-0.688-1.062-0.91
		c-0.406-0.221-0.837-0.332-1.295-0.332c-0.45,0-0.873,0.105-1.271,0.314c-0.4,0.208-0.75,0.505-1.053,0.888
		c-0.301,0.386-0.542,0.845-0.722,1.376C69.628,15.994,69.539,16.578,69.539,17.213z M70.125,17.237
		c0-0.477,0.068-0.926,0.201-1.348c0.135-0.422,0.321-0.791,0.562-1.105c0.243-0.312,0.529-0.563,0.865-0.746
		c0.335-0.185,0.701-0.275,1.099-0.275c0.53,0,0.972,0.127,1.319,0.382c0.351,0.254,0.626,0.579,0.827,0.971
		c-0.135-0.125-0.274-0.24-0.416-0.349s-0.298-0.203-0.469-0.283c-0.172-0.079-0.358-0.141-0.565-0.187
		c-0.208-0.046-0.44-0.07-0.696-0.07c-0.352,0-0.674,0.082-0.966,0.245c-0.289,0.161-0.539,0.382-0.75,0.657
		c-0.21,0.275-0.372,0.592-0.486,0.945c-0.113,0.358-0.171,0.728-0.171,1.112c0,0.82,0.13,1.521,0.39,2.103
		c0.26,0.58,0.69,1.052,1.295,1.41c-0.292-0.041-0.561-0.154-0.81-0.339c-0.249-0.184-0.464-0.428-0.646-0.729
		c-0.18-0.301-0.325-0.654-0.427-1.06C70.178,18.169,70.125,17.724,70.125,17.237z"/>
	<path fill="#6493FF" d="M83.356,20.613c-0.11-0.427-0.193-0.892-0.247-1.393c-0.053-0.503-0.08-1.054-0.08-1.658V13.45h-1.425
		v-2.133h3.229v5.181c0,0.676,0.02,1.283,0.064,1.813c0.039,0.531,0.099,0.949,0.179,1.25c0.102,0.384,0.232,0.711,0.395,0.977
		c0.161,0.268,0.346,0.487,0.549,0.653c0.203,0.168,0.424,0.288,0.663,0.364c0.236,0.074,0.484,0.113,0.741,0.113
		c0.273,0,0.559-0.076,0.853-0.228c0.291-0.15,0.576-0.358,0.851-0.626c0.272-0.268,0.529-0.586,0.766-0.952
		c0.237-0.37,0.438-0.766,0.601-1.193V13.45H88.65v-2.133h3.646V21.54h1.426v1.883h-3.229v-1.906
		c-0.18,0.325-0.396,0.626-0.65,0.903c-0.254,0.275-0.535,0.516-0.847,0.72c-0.311,0.205-0.646,0.367-1.002,0.482
		C87.638,23.74,87.266,23.8,86.88,23.8c-0.833,0-1.558-0.262-2.169-0.785C84.099,22.493,83.647,21.69,83.356,20.613z M82.107,14.327
		h0.572v0.475h-0.572V14.327z M83.449,22.583c0.438,0.702,0.927,1.227,1.477,1.574c0.548,0.348,1.201,0.521,1.962,0.521
		c0.676,0,1.282-0.133,1.816-0.396c0.532-0.265,1.018-0.622,1.453-1.072v0.577c-0.491,0.476-1.004,0.822-1.534,1.042
		c-0.532,0.216-1.107,0.325-1.727,0.325c-0.844,0-1.563-0.22-2.155-0.658C84.149,24.057,83.716,23.42,83.449,22.583z M83.751,5.947
		h2.055v2.508h-2.055V5.947z M84.255,9.334h2.154V6.649h0.335v3.162h-2.489V9.334z M85.436,11.955h0.337v5.157
		c0,0.653,0.042,1.197,0.125,1.633s0.196,0.79,0.334,1.064c0.143,0.277,0.3,0.491,0.479,0.64c0.181,0.152,0.365,0.269,0.556,0.353
		c-0.588-0.007-1.04-0.299-1.355-0.873c-0.315-0.573-0.475-1.465-0.475-2.678V11.955z M88.363,5.947h2.053v2.508h-2.053V5.947z
		 M88.865,9.334h2.155V6.649h0.337v3.162h-2.492V9.334z M89.151,14.327h0.989v0.475h-0.989V14.327z M94.325,24.302v-2.057h0.335
		v2.532h-3.665v-0.476H94.325z M92.883,11.955h0.337v8.833h-0.337V11.955z"/>
	<path fill="#6493FF" d="M96.815,21.54h1.845v-8.09h-1.845v-2.133h3.646v1.894c0.175-0.317,0.383-0.613,0.625-0.892
		c0.244-0.274,0.517-0.515,0.818-0.72c0.302-0.206,0.63-0.364,0.982-0.483c0.353-0.116,0.72-0.176,1.105-0.176
		c0.581,0,1.11,0.125,1.585,0.371c0.474,0.246,0.88,0.627,1.215,1.141c0.337,0.516,0.594,1.164,0.776,1.945
		c0.182,0.782,0.273,1.708,0.273,2.777v4.367h1.843v1.883h-5.072V21.54h1.427v-3.299c0-0.679-0.023-1.281-0.063-1.813
		c-0.042-0.53-0.104-0.947-0.181-1.25c-0.101-0.382-0.228-0.71-0.382-0.978c-0.152-0.269-0.327-0.484-0.52-0.652
		c-0.193-0.167-0.403-0.288-0.633-0.364c-0.23-0.076-0.472-0.112-0.73-0.112c-0.275,0-0.557,0.076-0.852,0.225
		c-0.292,0.151-0.577,0.362-0.854,0.634c-0.277,0.271-0.536,0.59-0.771,0.959c-0.238,0.368-0.435,0.764-0.593,1.191v5.457h1.426
		v1.883h-5.072V21.54z M97.318,14.327h0.988v0.475h-0.988V14.327z M102.491,24.302v-2.057h0.337v2.532h-5.51v-0.476H102.491z
		 M101.066,16.398c0.141-0.368,0.307-0.705,0.5-1.006c0.192-0.301,0.401-0.557,0.626-0.771c0.229-0.212,0.466-0.377,0.714-0.495
		c0.251-0.118,0.497-0.176,0.744-0.176c0.384,0,0.696,0.108,0.938,0.327c0.239,0.218,0.417,0.492,0.528,0.826
		c-0.174-0.192-0.377-0.354-0.607-0.489c-0.233-0.133-0.524-0.199-0.876-0.199c-0.219,0-0.441,0.059-0.664,0.182
		c-0.223,0.12-0.435,0.281-0.637,0.482c-0.202,0.201-0.383,0.431-0.545,0.688c-0.163,0.262-0.29,0.524-0.386,0.791v4.228h-0.336
		V16.398z M110.289,24.302v-2.057h0.336v2.532h-5.508v-0.476H110.289z M108.445,17.262c0-0.735-0.038-1.419-0.112-2.049
		c-0.076-0.631-0.19-1.2-0.341-1.707c-0.149-0.506-0.335-0.942-0.558-1.312c-0.22-0.368-0.475-0.66-0.767-0.878
		c0.381,0.142,0.704,0.382,0.973,0.722c0.269,0.338,0.485,0.767,0.654,1.287c0.166,0.518,0.289,1.114,0.369,1.792
		c0.077,0.68,0.117,1.424,0.117,2.235v3.436h-0.336V17.262z"/>
</g>
</svg>
