<?xml version="1.0" encoding="utf-8"?>
<!-- Generator: Adobe Illustrator 16.0.0, SVG Export Plug-In . SVG Version: 6.00 Build 0)  -->
<!DOCTYPE svg PUBLIC "-//W3C//DTD SVG 1.1//EN" "http://www.w3.org/Graphics/SVG/1.1/DTD/svg11.dtd">
<svg version="1.1" id="Layer_1" xmlns="http://www.w3.org/2000/svg" xmlns:xlink="http://www.w3.org/1999/xlink" x="0px" y="0px"
	 width="40px" height="30px" viewBox="0 0 40 30" enable-background="new 0 0 40 30" xml:space="preserve">
<title>majestic_mini</title>
<desc>Created with Sketch.</desc>
<g id="Page-1">
	<g id="majestic_mini">
		<path id="Rectangle" fill="#6493FF" d="M8.756,0.624l1.957,0.416c1.621,0.344,2.655,1.938,2.311,3.558l-4.574,21.52
			c-0.344,1.621-1.938,2.654-3.558,2.311l-1.956-0.416c-1.621-0.344-2.655-1.938-2.311-3.559L5.198,2.935
			C5.542,1.314,7.135,0.279,8.756,0.624z"/>
		<path id="Rectangle-Copy" fill="#3155A7" d="M19.7,5.42l1.972,0.099c1.635,0.082,2.756,1.024,2.504,2.104L19.7,26.52
			c-0.251,1.08-2.12,1.916-3.753,1.834l-1.973-0.099c-1.634-0.081-2.755-1.023-2.503-2.104l4.816-18.924
			C16.538,6.147,18.066,5.339,19.7,5.42z"/>
		<path id="Rectangle-Copy-2" fill="#6493FF" d="M29.605,6.863l1.948,0.423c1.615,0.351,2.624,1.861,2.253,3.373L29.93,27.075
			c-0.371,1.512-1.981,2.453-3.596,2.103l-1.949-0.424c-1.615-0.352-2.623-1.861-2.252-3.373L26.01,8.965
			C26.381,7.453,27.99,6.512,29.605,6.863z"/>
		<path id="Path-2" fill="#6493FF" d="M8.833,0.498l14.208,4.33c1.029,0.313,1.625,1.384,1.352,2.423l-1.36,5.156L4.471,6.783
			L5.533,2.18c0.301-1.301,1.599-2.112,2.9-1.812C8.57,0.399,8.704,0.443,8.833,0.498z"/>
		<circle id="Oval" fill="#6493FF" cx="36.5" cy="24.5" r="3.5"/>
	</g>
</g>
<g>
	<path fill="#FFFFFF" d="M26.585,24.823c-1.438-0.32-2.828-1.479-2.467-3.091c0.129-0.577,0.572-1.409,1.287-1.249
		c0.385,0.086,0.543,0.399,0.451,0.816c-0.063,0.272-0.604-0.232-0.791,0.61c-0.217,0.968,0.68,1.6,1.508,1.785
		c1.267,0.28,1.969-0.467,2.098-1.042c0.242-1.081-0.706-1.391-0.693-1.449c0.021-0.094,0.564-0.028,0.629-0.013
		c0.981,0.219,1.383,1.1,1.176,2.029C29.446,24.726,27.925,25.122,26.585,24.823z"/>
	<path fill="#FFFFFF" d="M30.263,20.6c-0.037,0.166,0.045,0.393-2.44-0.163c-3.272-0.731-3.077-1.049-3.052-1.161l0.137-0.609
		c0.057-0.259,0.078-0.351,0.594-0.577c0.993-0.432,1.486-0.364,1.517-0.497c0.022-0.1-0.454-0.248-1.151-1.141
		c-0.367-0.471-0.338-0.568-0.281-0.828l0.116-0.516c0.024-0.111-0.019-0.483,3.256,0.247c2.485,0.555,2.314,0.725,2.278,0.89
		l-0.189,0.85c-0.019,0.08-0.033,0.243-0.152,0.218c-0.094-0.021-1.201-0.665-2.932-1.052c-0.14-0.031-0.951-0.232-0.999-0.014
		c-0.042,0.19,0.558,0.588,0.701,0.691c1.235,0.859,1.909,0.771,1.81,1.217c-0.125,0.558-0.699,0.199-2.188,0.485
		c-0.161,0.034-0.88,0.105-0.926,0.31c-0.048,0.218,0.769,0.393,0.908,0.425c1.729,0.386,3.015,0.235,3.108,0.257
		c0.118,0.025,0.063,0.179,0.046,0.258L30.263,20.6z"/>
	<path fill="#FFFFFF" d="M27.146,12.373c-0.073,0.332-0.002,0.794,0.382,0.879c0.478,0.106,0.81-0.509,1.017-0.846
		c0.773-1.288,1.507-1.423,2.138-1.283c0.769,0.171,1.593,0.934,1.28,2.332c-0.21,0.941-0.926,1.783-1.979,1.547
		c-0.563-0.125-0.819-0.537-0.806-0.603c0.025-0.114,1.346,0.3,1.664-1.125c0.113-0.504-0.008-0.99-0.42-1.081
		c-0.484-0.109-0.814,0.443-1.02,0.801c-0.775,1.351-1.467,1.363-2.03,1.237c-0.557-0.123-1.421-0.713-1.12-2.059
		c0.215-0.961,0.878-1.529,1.069-1.485c0.187,0.041,0.712,0.52,0.67,0.705C27.954,11.558,27.3,11.685,27.146,12.373z"/>
</g>
</svg>
